<svg width="512" height="512" viewBox="0 0 512 512" fill="none" xmlns="http://www.w3.org/2000/svg">
<path d="M145.616 185.379H22.0303V503.172H145.616V185.379Z" fill="#D8F7F5"/>
<path d="M119.134 185.379H48.5132V503.172H119.134V185.379Z" fill="#D8F7F5"/>
<path d="M48.5133 185.379H22.0303V503.172H48.5133V185.379Z" fill="white"/>
<path d="M83.8232 459.034C103.324 459.034 119.133 443.225 119.133 423.724C119.133 404.223 103.324 388.414 83.8232 388.414C64.322 388.414 48.5132 404.223 48.5132 423.724C48.5132 443.225 64.322 459.034 83.8232 459.034Z" fill="#D8F7F5"/>
<path d="M66.1193 389.647C65.2423 393.757 61.5403 396.643 57.3403 396.491V448.161C59.7633 448.303 62.0263 449.419 63.6143 451.255C65.2023 453.091 65.9803 455.491 65.7723 457.909C81.4793 454.1 92.5683 440.075 92.6503 423.913C92.7323 407.751 81.7873 393.614 66.1193 389.647Z" fill="white"/>
<path d="M481.064 238.345C481.064 228.98 477.344 219.999 470.722 213.376C464.1 206.753 455.118 203.034 445.754 203.034H308.024L316.743 162.262C322.335 130.646 322.646 98.322 317.664 66.605C313.71 39.97 289.858 8.828 264.903 8.828H262.792C241.517 8.828 233.892 32.299 233.892 61.794C233.892 205.242 163.271 203.035 163.271 203.035H145.616V485.518H401.616C421.117 485.518 436.926 469.709 436.926 450.208C436.926 430.707 421.117 414.898 401.616 414.898H428.099C447.6 414.898 463.409 399.089 463.409 379.588C463.409 360.087 447.6 344.278 428.099 344.278H454.582C474.083 344.278 489.892 328.469 489.892 308.968C489.892 286.958 475.652 278.582 454.582 275.457C442.855 274.192 431.066 273.591 419.272 273.658H445.755C465.255 273.655 481.064 257.846 481.064 238.345Z" fill="#D8F7F5"/>
<path d="M454.582 238.345C454.582 228.98 450.862 219.999 444.24 213.376C437.618 206.753 428.636 203.034 419.272 203.034H281.541L290.26 162.262C295.852 130.646 296.163 98.322 291.181 66.605C287.227 39.969 276.502 17.655 251.547 17.655H249.436C228.161 17.655 242.719 32.298 242.719 61.793C242.719 205.241 163.271 203.034 163.271 203.034H145.616V485.517H375.133C394.634 485.517 410.443 469.708 410.443 450.207C410.443 430.706 394.634 414.897 375.133 414.897H401.616C421.117 414.897 436.926 399.088 436.926 379.587C436.926 360.086 421.117 344.277 401.616 344.277H428.099C447.6 344.277 463.409 328.468 463.409 308.967C463.409 286.957 449.169 278.581 428.099 275.456C416.372 274.191 404.583 273.59 392.789 273.657H419.272C438.773 273.655 454.582 257.846 454.582 238.345Z" fill="white"/>
<path d="M145.616 512H22.0302C19.6892 512.001 17.4431 511.071 15.7871 509.415C14.1311 507.759 13.2021 505.514 13.2021 503.172V185.379C13.2011 183.038 14.1311 180.792 15.7871 179.136C17.4431 177.48 19.6882 176.551 22.0302 176.551H145.616C147.957 176.55 150.203 177.48 151.859 179.136C153.515 180.792 154.444 183.037 154.444 185.379V503.172C154.445 505.513 153.515 507.759 151.859 509.415C150.203 511.071 147.958 512.001 145.616 512ZM30.8581 494.345H136.789V194.207H30.8581V494.345Z" fill="#00A8A8"/>
<path d="M83.8231 467.862C59.4461 467.862 39.6851 448.101 39.6851 423.724C39.6851 399.347 59.4461 379.586 83.8231 379.586C108.2 379.586 127.961 399.347 127.961 423.724C127.932 448.089 108.188 467.833 83.8231 467.862ZM83.8231 397.241C69.1971 397.241 57.3401 409.098 57.3401 423.724C57.3401 438.35 69.1971 450.207 83.8231 450.207C98.4491 450.207 110.306 438.35 110.306 423.724C110.29 409.105 98.4421 397.257 83.8231 397.241Z" fill="#00A8A8"/>
<path d="M428.099 282.483H357.478C352.603 282.483 348.65 278.531 348.65 273.655C348.65 268.779 352.602 264.827 357.478 264.827H428.099C432.974 264.827 436.927 268.779 436.927 273.655C436.927 278.531 432.974 282.483 428.099 282.483Z" fill="#00A8A8"/>
<path d="M428.099 353.103H357.478C352.603 353.103 348.65 349.151 348.65 344.275C348.65 339.399 352.602 335.447 357.478 335.447H428.099C432.974 335.447 436.927 339.399 436.927 344.275C436.927 349.151 432.974 353.103 428.099 353.103Z" fill="#00A8A8"/>
<path d="M410.444 423.724H339.823C334.948 423.724 330.995 419.772 330.995 414.896C330.995 410.02 334.947 406.068 339.823 406.068H410.444C415.319 406.068 419.272 410.02 419.272 414.896C419.272 419.772 415.319 423.724 410.444 423.724Z" fill="#00A8A8"/>
<path d="M401.616 494.345H145.616C143.275 494.346 141.029 493.416 139.373 491.76C137.717 490.104 136.788 487.859 136.788 485.517V203.034C136.787 200.693 137.717 198.447 139.373 196.791C141.029 195.135 143.274 194.206 145.616 194.206H163.271C174.491 193.173 184.93 188.016 192.568 179.732C207.391 165.025 225.064 132.62 225.064 61.792C225.064 8.026 248.702 0 262.793 0H264.905C294.552 0 321.823 34.483 326.396 65.31C331.405 98.079 331.06 131.444 325.374 164.103L318.939 194.206H445.754C464.156 194.199 480.629 205.614 487.086 222.845C493.543 240.076 488.628 259.506 474.754 271.594C490.062 277.461 499.774 292.605 498.719 308.965C498.693 330.165 483.621 348.362 462.797 352.336C472.327 364.453 474.84 380.665 469.428 395.098C464.015 409.532 451.461 420.093 436.314 422.956C446.759 436.237 448.701 454.317 441.315 469.513C433.929 484.711 418.512 494.353 401.616 494.345ZM154.444 476.69H401.616C416.242 476.69 428.099 464.833 428.099 450.207C428.099 435.581 416.242 423.724 401.616 423.724C396.741 423.724 392.788 419.772 392.788 414.896C392.788 410.02 396.74 406.068 401.616 406.068H428.099C442.725 406.068 454.582 394.211 454.582 379.585C454.582 364.959 442.725 353.102 428.099 353.102C423.224 353.102 419.271 349.15 419.271 344.274C419.271 339.398 423.223 335.446 428.099 335.446H454.582C469.201 335.43 481.049 323.583 481.065 308.963C481.065 296.558 476.341 287.601 453.289 284.187C441.991 282.975 430.634 282.405 419.272 282.48C414.397 282.48 410.444 278.528 410.444 273.652C410.444 268.776 414.396 264.824 419.272 264.824H445.755C460.381 264.824 472.238 252.967 472.238 238.341C472.238 223.715 460.381 211.858 445.755 211.858H308.026C305.361 211.857 302.839 210.653 301.163 208.581C299.487 206.509 298.836 203.791 299.392 201.185L308.108 160.409C313.373 129.816 313.651 98.573 308.931 67.892C305.577 45.28 284.598 17.651 264.904 17.651H262.792C245.326 17.651 242.719 45.306 242.719 61.789C242.719 124.117 229.801 168.237 204.327 192.927C193.536 204.372 178.71 211.16 162.995 211.849L154.443 211.858V476.69H154.444Z" fill="#00A8A8"/>
</svg>
