<svg width="490" height="490" viewBox="0 0 490 490" fill="none" xmlns="http://www.w3.org/2000/svg">
<g clip-path="url(#clip0_160_246)">
<path fill-rule="evenodd" clip-rule="evenodd" d="M259.237 388.891L231.998 373.16L233.911 362.752C234.992 356.867 235.606 351 235.606 345.067C235.606 339.138 234.992 333.285 233.91 327.392L232 316.983L259.232 301.266L259.24 301.261C259.6 301.054 259.9 300.693 260.034 300.206C260.145 299.79 260.089 299.322 259.858 298.923L259.857 298.921L238.688 262.249L238.687 262.246C238.214 261.427 237.161 261.138 236.33 261.616L236.326 261.617L209.171 277.305L201.113 270.47C192.134 262.852 181.749 256.832 170.397 252.775L160.445 249.219V217.783C160.445 216.822 159.674 216.062 158.732 216.062H116.38C115.428 216.062 114.653 216.847 114.653 217.783V249.219L104.701 252.775C93.3604 256.828 83.0053 262.844 74.0136 270.47L65.962 277.3L38.7755 261.618L38.7737 261.617C37.9467 261.14 36.9041 261.42 36.4276 262.246L15.2575 298.907C14.7803 299.734 15.0637 300.783 15.8844 301.257L43.0526 316.964L41.2011 327.322C40.1354 333.285 39.5111 339.152 39.5111 345.066C39.5111 350.984 40.1362 356.883 41.2012 362.844L43.0522 373.202L15.885 388.906C15.0643 389.381 14.7803 390.43 15.2575 391.257L36.3821 427.87C36.3844 427.874 36.3867 427.878 36.3891 427.882C36.6427 428.311 37.0251 428.596 37.4608 428.718C37.9345 428.839 38.3913 428.757 38.728 428.561L38.7514 428.547L66.0119 412.822L74.0669 419.677C83.0101 427.288 93.3668 433.301 104.692 437.338L114.655 440.89V472.332C114.655 473.274 115.438 474.059 116.382 474.059H158.734C159.67 474.059 160.447 473.301 160.447 472.332V440.886L170.415 437.336C181.757 433.297 192.129 427.283 201.068 419.676L209.127 412.818L236.348 428.539L236.352 428.541C237.159 429.008 238.218 428.733 238.694 427.909L259.856 391.262C260.348 390.408 260.042 389.356 259.237 388.891ZM272.85 398.755L251.681 435.415C247.064 443.403 236.834 446.145 228.846 441.528L210.789 431.1C200.461 439.889 188.499 446.819 175.447 451.467V472.332C175.447 481.567 167.972 489.059 158.734 489.059H116.382C107.161 489.059 99.6551 481.566 99.6551 472.332V451.467C86.6161 446.819 74.6721 439.889 64.3451 431.1L46.2701 441.527C42.4381 443.756 37.8661 444.348 33.5841 443.209C29.2881 442.053 25.6491 439.25 23.4171 435.414L2.26509 398.754C-2.35091 390.754 0.390099 380.537 8.37809 375.92L26.4351 365.482C25.2481 358.839 24.5111 352.041 24.5111 345.066C24.5111 338.091 25.2481 331.324 26.4351 324.683L8.37809 314.244C0.390099 309.627 -2.35091 299.41 2.26509 291.41L23.4351 254.75C28.0521 246.748 38.2681 244.008 46.2701 248.625L64.3111 259.031C74.6711 250.244 86.6011 243.314 99.6531 238.65V217.783C99.6531 208.548 107.159 201.062 116.38 201.062H158.732C167.97 201.062 175.445 208.549 175.445 217.783V238.65C188.497 243.314 200.459 250.244 210.817 259.031L228.83 248.625C236.832 244.008 247.062 246.748 251.679 254.75L272.848 291.422C275.063 295.258 275.67 299.827 274.518 304.108C273.361 308.391 270.571 312.047 266.722 314.262L248.664 324.684C249.883 331.325 250.606 338.093 250.606 345.067C250.606 352.041 249.884 358.824 248.664 365.463L266.739 375.902C274.741 380.523 277.464 390.754 272.85 398.755ZM137.567 431.188C90.0652 431.188 51.4601 392.554 51.4601 345.067C51.4601 297.58 90.0663 258.946 137.567 258.946C185.075 258.946 223.688 297.578 223.688 345.067C223.688 392.556 185.075 431.188 137.567 431.188ZM66.4601 345.067C66.4601 384.274 98.3541 416.188 137.567 416.188C176.789 416.188 208.688 384.274 208.688 345.067C208.688 305.86 176.789 273.946 137.567 273.946C98.3551 273.946 66.4601 305.86 66.4601 345.067Z" fill="#00A8A8"/>
<path fill-rule="evenodd" clip-rule="evenodd" d="M259.237 388.891L231.998 373.16L233.911 362.752C234.992 356.867 235.606 351 235.606 345.067C235.606 339.138 234.992 333.285 233.91 327.392L232 316.983L259.232 301.266L259.24 301.261C259.6 301.054 259.9 300.693 260.034 300.206C260.145 299.79 260.089 299.322 259.858 298.923L259.857 298.921L238.688 262.249L238.687 262.246C238.214 261.427 237.161 261.138 236.33 261.616L236.326 261.617L209.171 277.305L201.113 270.47C192.134 262.852 181.749 256.832 170.397 252.775L160.445 249.219V217.783C160.445 216.822 159.674 216.062 158.732 216.062H116.38C115.428 216.062 114.653 216.847 114.653 217.783V249.219L104.701 252.775C93.3604 256.828 83.0053 262.844 74.0136 270.47L65.962 277.3L38.7755 261.618L38.7737 261.617C37.9467 261.14 36.9041 261.42 36.4276 262.246L15.2575 298.907C14.7803 299.734 15.0637 300.783 15.8844 301.257L43.0526 316.964L41.2011 327.322C40.1354 333.285 39.5111 339.152 39.5111 345.066C39.5111 350.984 40.1362 356.883 41.2012 362.844L43.0522 373.202L15.885 388.906C15.0643 389.381 14.7803 390.43 15.2575 391.257L36.3821 427.87L36.3891 427.882C36.6427 428.311 37.0251 428.596 37.4608 428.718C37.9345 428.839 38.3913 428.757 38.728 428.561L38.7514 428.547L66.0119 412.822L74.0669 419.677C83.0101 427.288 93.3668 433.301 104.692 437.338L114.655 440.89V472.332C114.655 473.274 115.438 474.059 116.382 474.059H158.734C159.67 474.059 160.447 473.301 160.447 472.332V440.886L170.415 437.336C181.757 433.297 192.129 427.283 201.068 419.676L209.127 412.818L236.348 428.539L236.352 428.541C237.159 429.008 238.218 428.733 238.694 427.909L259.856 391.262C260.348 390.408 260.042 389.356 259.237 388.891ZM51.4601 345.067C51.4601 392.554 90.0652 431.188 137.567 431.188C185.075 431.188 223.688 392.556 223.688 345.067C223.688 297.578 185.075 258.946 137.567 258.946C90.0663 258.946 51.4601 297.58 51.4601 345.067Z" fill="#D8F7F5"/>
<path d="M137.495 302C113.516 302 94 321.287 94 345.002C94 368.713 113.515 388 137.495 388C161.485 388 181 368.713 181 345.002C181.001 321.287 161.485 302 137.495 302Z" fill="#D8F7F5"/>
<path fill-rule="evenodd" clip-rule="evenodd" d="M166 345.002V345.001C166.001 329.737 153.367 317 137.495 317C121.637 317 109 329.734 109 345.002C109 360.265 121.636 373 137.495 373C153.367 373 166 360.263 166 345.002ZM181 345.002C181.001 321.287 161.485 302 137.495 302C113.516 302 94 321.287 94 345.002C94 368.713 113.515 388 137.495 388C161.485 388 181 368.713 181 345.002Z" fill="#00A8A8"/>
<path d="M471.555 303.822C455.051 286.051 431.48 278.853 409.221 282.443L227.415 86.688C232.63 64.77 227.21 40.729 210.725 22.993C196.146 7.311 176.084 0.0130064 156.263 1.038C153.664 1.167 151.357 2.802 150.396 5.226C149.401 7.648 149.915 10.419 151.678 12.345L170.842 32.968C172.557 34.827 173.486 37.282 173.392 39.814C173.293 42.351 172.204 44.72 170.342 46.453L134.809 79.441C130.959 83.019 124.927 82.795 121.337 78.947L102.19 58.32C100.39 56.394 97.667 55.691 95.18 56.494C92.697 57.293 90.898 59.476 90.58 62.07C88.106 81.75 93.849 102.275 108.44 117.961C124.925 135.695 148.483 142.895 170.742 139.305L352.58 335.073C347.351 357.016 352.772 381.052 369.275 398.837C383.836 414.474 403.879 421.737 423.7 420.724C426.312 420.601 428.591 418.997 429.586 416.56C430.581 414.134 430.068 411.345 428.273 409.419L409.14 388.812C405.563 384.982 405.754 378.904 409.635 375.31L445.142 342.339C449.022 338.749 455.037 338.974 458.644 342.839L477.791 363.46C479.586 365.384 482.313 366.108 484.796 365.304C487.271 364.474 489.066 362.308 489.418 359.728C491.902 340.049 486.115 319.504 471.555 303.822Z" fill="#D8F7F5"/>
<path fill-rule="evenodd" clip-rule="evenodd" d="M458.644 342.839L477.791 363.46C479.586 365.384 482.313 366.108 484.796 365.304C487.271 364.474 489.066 362.308 489.418 359.728C491.902 340.049 486.115 319.504 471.555 303.822C455.051 286.051 431.48 278.853 409.221 282.443L227.415 86.688C232.63 64.77 227.21 40.729 210.725 22.993C196.146 7.311 176.084 0.0130064 156.263 1.038C153.664 1.167 151.357 2.802 150.396 5.226C149.401 7.648 149.915 10.419 151.678 12.345L170.842 32.968C172.557 34.827 173.486 37.282 173.392 39.814C173.293 42.351 172.204 44.72 170.342 46.453L134.809 79.441C130.959 83.019 124.927 82.795 121.337 78.947L102.19 58.32C100.39 56.394 97.667 55.691 95.18 56.494C92.697 57.293 90.898 59.476 90.58 62.07C88.106 81.75 93.849 102.275 108.44 117.961C124.925 135.695 148.483 142.895 170.742 139.305L352.58 335.073C347.351 357.016 352.772 381.052 369.275 398.837C383.836 414.474 403.879 421.737 423.7 420.724C426.312 420.601 428.591 418.997 429.586 416.56C430.581 414.134 430.068 411.345 428.273 409.419L409.14 388.812C405.563 384.982 405.754 378.904 409.635 375.31L445.142 342.339C449.022 338.749 455.037 338.974 458.644 342.839ZM399.443 364.304L434.945 331.338L434.955 331.329C444.907 322.121 460.377 322.711 469.61 332.605L469.623 332.619L473.002 336.258C470.771 328.203 466.639 320.573 460.564 314.03C447.625 300.097 429.148 294.423 411.609 297.252L403.689 298.529L210.966 91.0188L212.822 83.2159C216.934 65.9357 212.645 47.0928 199.739 33.2062M399.443 364.304C389.448 373.56 388.954 389.148 398.155 399.026C398.162 399.034 398.17 399.042 398.178 399.05L401.494 402.622C393.627 399.809 386.33 395.14 380.258 388.621C367.33 374.68 363.051 355.842 367.171 338.55L369.032 330.744L176.273 123.219L168.354 124.496C150.814 127.325 132.347 121.648 119.426 107.748L119.423 107.745C113.342 101.207 109.216 93.5889 106.989 85.5387L110.356 89.1657L110.369 89.1795C119.579 99.0508 135.08 99.6606 145.015 90.434C145.015 90.4343 145.015 90.4337 145.015 90.434C145.017 90.4325 145.019 90.4302 145.02 90.4286L180.561 57.4331C185.314 53.0094 188.127 46.9073 188.381 40.3989V40.3847L188.382 40.3705C188.626 33.795 186.211 27.5053 181.867 22.797L181.849 22.7771L178.477 19.149C186.346 21.9725 193.653 26.6597 199.738 33.205" fill="#00A8A8"/>
</g>
<defs>
<clipPath id="clip0_160_246">
<rect width="490" height="490" fill="white"/>
</clipPath>
</defs>
</svg>
