<svg width="480" height="480" viewBox="0 0 480 480" fill="none" xmlns="http://www.w3.org/2000/svg">
<g clip-path="url(#clip0_160_275)">
<mask id="mask0_160_275" style="mask-type:luminance" maskUnits="userSpaceOnUse" x="0" y="0" width="480" height="480">
<path d="M480 0H0V480H480V0Z" fill="white"/>
</mask>
<g mask="url(#mask0_160_275)">
<path d="M55 300H10V436H55V300Z" fill="#D8F7F5"/>
<path d="M470 300H425V436H470V300Z" fill="#D8F7F5"/>
<path d="M472 288H424C419.582 288 416 291.582 416 296H392C387.582 296 384 299.582 384 304V305.44L351.592 311.92L269.704 304C267.731 303.811 265.758 304.361 264.168 305.544L247.44 318.016L228.44 305.344C226.924 304.319 225.103 303.845 223.28 304L136.304 311.912L96 305.224V304C96 299.582 92.418 296 88 296H64C64 291.582 60.418 288 56 288H8C3.582 288 0 291.582 0 296V440C0 444.418 3.582 448 8 448H56C60.418 448 64 444.418 64 440H88C92.418 440 96 436.418 96 432H126.464L245.024 479.432C246.642 480.074 248.424 480.175 250.104 479.72L338.104 455.72C342.309 454.617 344.825 450.314 343.722 446.109C343.701 446.03 343.679 445.951 343.656 445.872L384.456 434.416C385.476 437.729 388.534 439.992 392 440H416C416 444.418 419.582 448 424 448H472C476.418 448 480 444.418 480 440V296C480 291.582 476.418 288 472 288ZM48 432H16V304H48V432ZM80 424H64V312H80V424ZM248.48 463.576L130.976 416.568C130.029 416.193 129.019 416 128 416H96V321.44L134.68 327.888C135.354 327.998 136.039 328.025 136.72 327.968L221.912 320.224L233.808 328.152L212.208 344.208C199.594 352.519 196.105 369.483 204.417 382.097C209.49 389.796 218.1 394.422 227.32 394.4C232.907 394.39 238.365 392.719 243 389.6L247.656 386.096L318.92 444.4L248.48 463.576ZM383.936 417.936L330.24 433L260.8 376.144L273.752 366.4L264.152 353.6L233.752 376.504C228.513 380.003 221.429 378.593 217.929 373.353C216.461 371.156 215.802 368.517 216.064 365.888C216.439 362.349 218.414 359.178 221.424 357.28L271.24 320.256L351.2 328C351.981 328.069 352.767 328.026 353.536 327.872L383.936 321.792V417.936ZM416 424H400V312H416V424ZM464 432H432V304H464V432Z" fill="#00A8A8"/>
<path d="M184 112H112V64C112 59.582 108.418 56 104 56H80V24C80 19.582 76.418 16 72 16H64V5C64 2.23858 61.7614 0 59 0H53C50.2386 0 48 2.23858 48 5V16H40C35.582 16 32 19.582 32 24V56H8C3.582 56 0 59.582 0 64V264C0 268.418 3.582 272 8 272H184C188.418 272 192 268.418 192 264V120C192 115.582 188.418 112 184 112ZM48 32H64V56H48V32ZM96 256H16V72H96V256ZM176 144H160V160H176V176H160V192H176V256H112V128H176V144Z" fill="#00A8A8"/>
<path d="M48 120H32V136H48V120Z" fill="#00A8A8"/>
<path d="M80 120H64V136H80V120Z" fill="#00A8A8"/>
<path d="M48 152H32V168H48V152Z" fill="#00A8A8"/>
<path d="M80 152H64V168H80V152Z" fill="#00A8A8"/>
<path d="M48 184H32V200H48V184Z" fill="#00A8A8"/>
<path d="M144 144H128V160H144V144Z" fill="#00A8A8"/>
<path d="M144 176H128V192H144V176Z" fill="#00A8A8"/>
<path d="M48 88H32V104H48V88Z" fill="#00A8A8"/>
<path d="M80 88H64V104H80V88Z" fill="#00A8A8"/>
<path d="M352 0C347.582 0 344 3.58172 344 8V12C344 18.627 338.627 24 332 24C316.536 24 304 36.536 304 52V64H320V52C320 45.373 325.373 40 332 40C347.464 40 360 27.464 360 12V8C360 3.58172 356.418 0 352 0Z" fill="#00A8A8"/>
<path d="M477.208 177.928L421.208 129.928C417.854 127.052 412.804 127.439 409.927 130.793C408.684 132.243 408 134.09 408 136V152.888L381.208 129.928C377.854 127.052 372.804 127.439 369.927 130.793C368.684 132.243 368 134.09 368 136V176H352V96H360V80H354.224C357.059 75.066 362.309 72.017 368 72C390.08 71.974 407.974 54.08 408 32V24C408 19.5817 404.418 16 400 16C395.582 16 392 19.5817 392 24V32C392 45.255 381.255 56 368 56C353.453 56.055 340.773 65.914 337.136 80H296V96H304V176H296C291.582 176 288 179.582 288 184V264C288 268.418 291.582 272 296 272H472C476.418 272 480 268.418 480 264V184C480 181.666 478.98 179.448 477.208 177.928ZM320 96H336V176H320V96ZM464 256H304V192H376C380.418 192 384 188.418 384 184V153.392L410.792 176.36C414.146 179.236 419.196 178.849 422.073 175.495C423.317 174.045 424 172.198 424 170.288V153.392L464 187.68V256Z" fill="#00A8A8"/>
<path d="M416 224H400V240H416V224Z" fill="#00A8A8"/>
<path d="M448 224H432V240H448V224Z" fill="#00A8A8"/>
<path d="M416 192H400V208H416V192Z" fill="#00A8A8"/>
<path d="M448 192H432V208H448V192Z" fill="#00A8A8"/>
<path d="M336 208H320V224H336V208Z" fill="#00A8A8"/>
<path d="M368 208H352V224H368V208Z" fill="#00A8A8"/>
<path d="M248 200V184H232V200H216V216H232V232H248V216H264V200H248Z" fill="#00A8A8"/>
<path d="M187.337 468.794L131.416 445.895C128.861 444.848 125.941 446.072 124.894 448.627C123.848 451.183 125.071 454.102 127.627 455.149L183.548 478.048C186.103 479.094 189.023 477.871 190.069 475.316C191.116 472.76 189.893 469.84 187.337 468.794Z" fill="#00A8A8"/>
</g>
</g>
<defs>
<clipPath id="clip0_160_275">
<rect width="480" height="480" fill="white"/>
</clipPath>
</defs>
</svg>
