<svg width="480" height="480" viewBox="0 0 480 480" fill="none" xmlns="http://www.w3.org/2000/svg">
<g clip-path="url(#clip0_160_252)">
<mask id="mask0_160_252" style="mask-type:luminance" maskUnits="userSpaceOnUse" x="0" y="0" width="480" height="480">
<path d="M480 0H0V480H480V0Z" fill="white"/>
</mask>
<g mask="url(#mask0_160_252)">
<path d="M471.973 120H407.973C399.148 119.973 392 112.824 391.973 104V40L471.973 120Z" fill="#D8F7F5"/>
<path d="M175.973 216C228.992 216 271.973 258.98 271.973 312V472H15.9727V312C15.9727 258.98 58.9531 216 111.973 216L95.9727 240L111.973 280L144 326.5L175.973 280L191.973 240L175.973 216Z" fill="#D8F7F5"/>
<path d="M87.9725 96V144C88.0116 159.91 97.4178 174.301 111.973 180.719V216C84.7537 215.965 58.8045 227.512 40.6131 247.762C16.5428 234.223 3.87091 206.777 9.17951 179.676C14.4842 152.578 36.578 131.938 63.9725 128.48V88C63.9647 83.9258 64.285 79.8594 64.9334 75.8398L87.9725 76.6406H88.7733L87.9725 96Z" fill="#D8F7F5"/>
<path d="M199.973 83.3594C188.773 83.3594 188.773 76.6406 177.574 76.6406C166.375 76.6406 166.375 83.3594 155.094 83.3594C143.812 83.3594 143.895 76.6406 132.773 76.6406C121.652 76.6406 121.574 83.3594 110.375 83.3594C99.4922 83.3594 99.1758 76.9609 88.7734 76.6406H87.9727L64.9336 75.8398C71.3789 34.5976 108.453 5.24606 150.074 8.42575C191.695 11.6094 223.871 46.2578 223.973 88V128.48C251.371 131.937 273.461 152.578 278.77 179.676C284.074 206.777 271.402 234.223 247.332 247.762C229.141 227.512 203.191 215.965 175.973 216V180.719C190.531 174.301 199.938 159.91 199.973 144V83.3594Z" fill="#D8F7F5"/>
<path d="M110.375 91.3594C115.816 91.4492 121.16 89.8789 125.688 86.8555C129.941 83.9023 135.582 83.9023 139.84 86.8555C149.172 92.8555 161.145 92.8555 170.477 86.8555C174.742 83.8906 180.402 83.8906 184.672 86.8555C189.199 89.8711 194.535 91.4414 199.973 91.3594V75.3594C197.426 75.4375 194.926 74.6523 192.879 73.1367C183.539 67.1406 171.562 67.1406 162.223 73.1367C160.172 74.6523 157.676 75.4375 155.125 75.3594C152.582 75.4453 150.086 74.6641 148.047 73.1445C138.723 67.1367 126.75 67.1367 117.43 73.1445C113.18 76.0976 107.539 76.0976 103.285 73.1445C98.7578 70.1211 93.418 68.5508 87.9727 68.6406V84.6406C90.5156 84.5547 93.0078 85.3359 95.0469 86.8555C99.5781 89.8828 104.926 91.4531 110.375 91.3594Z" fill="#00A8A8"/>
<path d="M477.629 114.344L397.629 34.3438C396.129 32.8438 394.094 32 391.973 32H239.973V48H383.973V104C383.973 117.254 394.719 128 407.973 128H463.973V408C463.973 421.254 453.23 432 439.973 432H279.973V312C279.965 289.492 272.605 267.602 259.023 249.656C281.516 232.863 292.199 204.527 286.391 177.062C280.582 149.602 259.34 128.016 231.973 121.77V88C231.973 39.3984 192.574 0 143.973 0C95.371 0 55.9726 39.3984 55.9726 88V121.77C28.6054 128.016 7.3671 149.602 1.5585 177.062C-4.25009 204.527 6.4335 232.863 28.9257 249.656C15.3398 267.602 7.98428 289.492 7.97256 312V472C7.97256 476.418 11.5546 480 15.9726 480H271.973C276.391 480 279.973 476.418 279.973 472V448H439.973C462.055 447.973 479.949 430.082 479.973 408V120C479.973 117.879 479.129 115.844 477.629 114.344ZM15.9726 192C15.9609 163.773 36.957 139.953 64.957 136.414C68.9648 135.918 71.9726 132.516 71.9726 128.48V88C71.9726 48.2344 104.211 16 143.973 16C183.738 16 215.973 48.2344 215.973 88V128.48C215.977 132.516 218.984 135.918 222.988 136.414C245.883 139.273 264.668 155.898 270.293 178.273C275.918 200.645 267.223 224.176 248.406 237.52C231.008 220.559 208.199 210.254 183.973 208.406V185.504C198.805 176.941 207.949 161.125 207.973 144V96H191.973V144C191.973 161.672 177.648 176 159.973 176H127.973C110.301 176 95.9726 161.672 95.9726 144V96H79.9726V144C79.996 161.125 89.1445 176.941 103.973 185.504V208.406C79.746 210.254 56.9413 220.559 39.5429 237.52C24.789 227.051 16.0077 210.09 15.9726 192ZM127.973 192H159.973C162.656 191.984 165.332 191.742 167.973 191.281V213.199L143.973 243.199L119.973 213.199V191.281C122.617 191.742 125.293 191.984 127.973 192ZM112.559 229.535L132.559 254.551L115.512 267.352L104.949 240.953L112.559 229.535ZM143.973 266L166.078 282.574L143.949 312L121.871 282.574L143.973 266ZM172.422 267.336L155.375 254.535L175.375 229.52L182.965 240.922L172.422 267.336ZM263.973 464H231.973V387.574C253.309 362.441 253.309 325.559 231.973 300.426V288H215.973V304C215.973 306.52 217.16 308.891 219.176 310.398C226.375 315.832 231.973 332.922 231.973 344C231.973 355.078 226.375 372.176 219.176 377.602C217.16 379.109 215.973 381.48 215.973 384V464H71.9726V384C71.9726 381.48 70.789 379.109 68.7734 377.602C61.5741 372.176 55.9726 355.09 55.9726 344C55.9726 332.91 61.5741 315.824 68.7734 310.398C70.789 308.891 71.9726 306.52 71.9726 304V288H55.9726V300.426C34.6406 325.559 34.6406 362.441 55.9726 387.574V464H23.9726V312C24.0429 269.594 54.3163 233.254 96.0156 225.52L89.3163 235.559C87.8437 237.75 87.5468 240.523 88.5195 242.977L136.637 355.246C137.922 358.141 140.809 328 143.973 328C147.137 328 151.262 355.246 151.262 355.246L199.383 242.977C200.355 240.523 200.055 237.75 198.582 235.559L191.973 225.52C233.656 233.27 263.906 269.605 263.973 312V464ZM399.973 104V59.3125L452.66 112H407.973C403.555 112 399.973 108.418 399.973 104Z" fill="#00A8A8"/>
<path d="M319.973 304C319.973 299.582 323.554 296 327.973 296H343.973C348.391 296 351.973 299.582 351.973 304C351.973 308.418 348.391 312 343.973 312H327.973C323.554 312 319.973 308.418 319.973 304Z" fill="#D8F7F5"/>
<path d="M367.973 304C367.973 299.582 371.554 296 375.973 296H423.973C428.391 296 431.973 299.582 431.973 304C431.973 308.418 428.391 312 423.973 312H375.973C371.554 312 367.973 308.418 367.973 304Z" fill="#D8F7F5"/>
<path d="M255.973 96C255.973 91.5817 259.554 88 263.973 88C268.391 88 271.973 91.5817 271.973 96C271.973 100.418 268.391 104 263.973 104C259.554 104 255.973 100.418 255.973 96Z" fill="#D8F7F5"/>
<path d="M287.973 96C287.973 91.5817 291.554 88 295.973 88H343.973C348.391 88 351.973 91.5817 351.973 96C351.973 100.418 348.391 104 343.973 104H295.973C291.554 104 287.973 100.418 287.973 96Z" fill="#D8F7F5"/>
<path d="M319.973 344C319.973 339.582 323.554 336 327.973 336H423.973C428.391 336 431.973 339.582 431.973 344C431.973 348.418 428.391 352 423.973 352H327.973C323.554 352 319.973 348.418 319.973 344Z" fill="#D8F7F5"/>
<path d="M319.973 384C319.973 379.582 323.554 376 327.973 376H423.973C428.391 376 431.973 379.582 431.973 384C431.973 388.418 428.391 392 423.973 392H327.973C323.554 392 319.973 388.418 319.973 384Z" fill="#D8F7F5"/>
<path d="M287.973 128C287.973 123.582 291.554 120 295.973 120H343.973C348.391 120 351.973 123.582 351.973 128C351.973 132.418 348.391 136 343.973 136H295.973C291.554 136 287.973 132.418 287.973 128Z" fill="#D8F7F5"/>
<path d="M143.973 144C139.555 144 135.973 140.418 135.973 136H119.973C119.973 149.254 130.719 160 143.973 160C157.23 160 167.973 149.254 167.973 136H151.973C151.973 140.418 148.391 144 143.973 144Z" fill="#00A8A8"/>
<path d="M127.973 104C127.973 108.418 124.391 112 119.973 112C115.555 112 111.973 108.418 111.973 104C111.973 99.582 115.555 96 119.973 96C124.391 96 127.973 99.582 127.973 104Z" fill="#00A8A8"/>
<path d="M175.973 104C175.973 108.418 172.391 112 167.973 112C163.555 112 159.973 108.418 159.973 104C159.973 99.582 163.555 96 167.973 96C172.391 96 175.973 99.582 175.973 104Z" fill="#00A8A8"/>
<path d="M215 285H162C159.239 285 157 287.239 157 290V311C157 313.761 159.239 316 162 316H215C217.761 316 220 313.761 220 311V290C220 287.239 217.761 285 215 285Z" fill="#D8F7F5" stroke="#00A8A8" stroke-width="10"/>
<path d="M422.391 157C419.845 157 417.781 159.063 417.781 161.609H318.219C318.219 159.063 316.155 157 313.609 157C311.063 157 309 159.063 309 161.609V191.57C309 194.116 311.063 196.18 313.609 196.18C316.155 196.18 318.219 194.116 318.219 191.57H326.285V256.562C326.285 266.729 334.556 275 344.723 275C354.889 275 363.16 266.729 363.16 256.562V191.57H372.609V256.562C372.609 266.729 380.88 275 391.047 275C401.214 275 409.484 266.729 409.484 256.562C409.484 254.017 407.421 251.953 404.875 251.953C402.329 251.953 400.266 254.017 400.266 256.562C400.266 261.645 396.13 265.781 391.047 265.781C385.964 265.781 381.828 261.645 381.828 256.562V218.996H400.266V233.516C400.266 236.062 402.329 238.125 404.875 238.125C407.421 238.125 409.484 236.062 409.484 233.516V191.57H417.781C417.781 194.116 419.845 196.18 422.391 196.18C424.937 196.18 427 194.116 427 191.57V161.609C427 159.063 424.937 157 422.391 157ZM344.723 265.781C339.64 265.781 335.504 261.645 335.504 256.562V218.996H353.941V256.562C353.941 261.645 349.806 265.781 344.723 265.781ZM404.875 182.352C402.329 182.352 400.266 184.415 400.266 186.961V209.777H381.828V186.961C381.828 184.415 379.765 182.352 377.219 182.352H358.551C356.005 182.352 353.941 184.415 353.941 186.961V209.777H335.504V186.961C335.504 184.415 333.44 182.352 330.895 182.352H318.219V170.828H417.781V182.352H404.875Z" fill="#00A8A8"/>
</g>
</g>
<defs>
<clipPath id="clip0_160_252">
<rect width="480" height="480" fill="white"/>
</clipPath>
</defs>
</svg>
