<svg width="388" height="388" viewBox="0 0 388 388" fill="none" xmlns="http://www.w3.org/2000/svg">
<path d="M377.978 244.842C356.215 235.7 336.625 222.682 319.758 206.16C309.497 196.1 291.826 196.1 281.531 206.16C276.553 211.037 271.27 215.508 265.832 219.763C257.748 216.446 212.04 206.027 206.852 204.418C196.571 201.221 188.205 193.395 184.204 183.56C215.927 169.762 232.741 134.099 235.421 98.2416V92.8718H248.904C252.968 92.8718 256.256 89.5791 256.256 85.52C256.256 81.461 252.968 78.1683 248.904 78.1683H239.715L238.695 67.8304C236.287 43.4973 219.584 23.2901 196.141 16.3401L182.739 12.3674V7.35172C182.739 3.29271 179.451 0 175.387 0H133.546C129.492 0 126.204 3.28303 126.195 7.33236L126.185 12.3198L112.477 16.3877C89.1294 23.3087 72.44 43.4295 69.9515 67.6288L68.865 78.1683H59.8628C55.8038 78.1683 52.5111 81.461 52.5111 85.52C52.5111 89.5791 55.8038 92.8718 59.8628 92.8718H73.6951L73.7048 98.7973C76.3562 134.005 92.9787 169.365 124.338 183.317C120.379 193.363 112.401 201.194 101.89 204.439C92.9593 207.196 58.2883 214.787 58.2883 214.787C58.2834 214.787 58.2786 214.787 58.2786 214.787C53.488 215.849 11.3353 226.121 6.47291 260.179C3.53916 280.663 0.11658 300.105 0.11174 300.144C-0.266575 302.278 0.327112 304.48 1.72018 306.146C3.11809 307.812 5.18067 308.769 7.35376 308.769H232.592C240.929 325.444 250.976 341.249 262.769 355.99L279.669 377.107C284.791 383.511 292.439 387.187 300.643 387.187C308.851 387.187 316.495 383.511 321.621 377.107L338.531 355.971C360.686 328.269 376.863 296.928 386.608 262.822C388.699 255.506 384.985 247.781 377.978 244.842ZM251.125 230.148C242.294 235.763 233.057 240.75 223.303 244.842C220.513 246.02 218.44 248.082 216.856 250.447L223.399 223.802C224.087 223.965 248.793 229.455 251.125 230.148ZM191.962 30.4297C209.647 35.6753 222.244 50.924 224.063 69.284L224.944 78.1675H182.739V27.6968L191.962 30.4297ZM168.036 14.7026V78.1675H140.745L140.883 14.7026H168.036ZM84.5791 69.1404C86.4554 50.8764 99.0478 35.7043 116.661 30.4773L126.152 27.6629L126.042 78.1667H83.6507L84.5791 69.1404ZM88.3889 98.2408V92.871H220.727L220.737 97.6858C217.846 136.129 196.26 174.906 154.554 174.906C112.847 174.906 91.2605 136.128 88.3889 98.2408ZM154.553 189.609C160.076 189.609 165.254 188.982 170.199 187.972C172.88 195.084 177.058 201.364 182.385 206.5L154.75 228.942L126.669 206.26C131.876 201.154 135.949 194.941 138.563 187.915C143.607 188.968 148.901 189.609 154.553 189.609ZM85.4164 223.806L103.298 294.063H56.7137V230.445C59.3369 229.636 78.8447 225.324 85.4164 223.806ZM21.0231 262.264C22.7888 249.916 32.529 241.716 42.0103 236.562V294.063H16.0647C17.3472 286.357 19.2807 274.449 21.0231 262.264ZM118.47 294.063L99.6988 220.313C102.111 219.681 111.688 216.446 114.254 215.144L150.145 244.124C151.49 245.206 153.127 245.751 154.764 245.751C156.406 245.751 158.047 245.206 159.397 244.105L194.858 215.311C197.304 216.527 206.675 219.662 209.116 220.298L191.01 294.063H118.47ZM206.149 294.063C206.149 294.063 214.439 261.982 214.682 262.829C217.741 273.535 221.507 283.931 225.815 294.063H206.149ZM327.048 346.778L310.138 367.914C305.5 373.714 295.789 373.714 291.147 367.914L274.252 346.797C253.317 320.636 238.03 291.018 229.003 258.395C260.949 245.416 285.777 222.585 291.827 216.66C294.201 214.333 297.331 213.051 300.652 213.051C303.964 213.051 307.094 214.333 309.464 216.66C327.671 234.483 348.801 248.526 372.465 258.788C363.26 291.009 347.978 320.607 327.048 346.778Z" fill="#00A8A8"/>
<path d="M327.048 346.778L310.138 367.914C305.5 373.714 295.789 373.714 291.147 367.914L274.252 346.797C253.317 320.636 238.03 291.018 229.003 258.395C260.949 245.416 285.777 222.585 291.827 216.66C294.201 214.333 297.331 213.051 300.652 213.051C303.964 213.051 307.094 214.333 309.464 216.66C327.671 234.483 348.801 248.526 372.465 258.788C363.26 291.009 347.978 320.607 327.048 346.778Z" fill="#D8F7F5"/>
<path d="M84.5791 69.1404C86.4554 50.8764 99.0478 35.7043 116.661 30.4773L126.152 27.6629L126.042 78.1667H83.6507L84.5791 69.1404Z" fill="#D8F7F5"/>
<path d="M191.962 30.4297C209.647 35.6753 222.244 50.924 224.063 69.284L224.944 78.1675H182.739V27.6968L191.962 30.4297Z" fill="#D8F7F5"/>
<path d="M118.47 294.063L99.6988 220.313C102.111 219.681 111.688 216.446 114.254 215.144L150.145 244.124C151.49 245.206 153.127 245.751 154.764 245.751C156.406 245.751 158.047 245.206 159.397 244.105L194.858 215.311C197.304 216.527 206.675 219.662 209.116 220.298L191.01 294.063H118.47Z" fill="#D8F7F5"/>
<path d="M277.209 285.821C274.337 282.949 269.685 282.949 266.813 285.821C263.941 288.693 263.941 293.345 266.813 296.217L286.604 316.003C288.245 317.659 290.438 318.568 292.768 318.568C295.099 318.568 297.286 317.659 298.914 316.022L339.477 275.454C342.348 272.582 342.348 267.93 339.477 265.058C336.61 262.186 331.953 262.186 329.081 265.058L292.768 301.375L277.209 285.821Z" fill="#00A8A8"/>
</svg>
