<svg width="597" height="525" viewBox="0 0 597 525" fill="none" xmlns="http://www.w3.org/2000/svg">
<path d="M10.5 125.5H355.5V110.167C355.5 88.6979 355.5 77.9636 351.322 69.7637C347.647 62.5507 341.782 56.6865 334.57 53.0115C326.371 48.8333 315.635 48.8333 294.167 48.8333H278.833H87.1667H71.8333C50.3647 48.8333 39.6303 48.8333 31.4304 53.0115C24.2174 56.6865 18.3532 62.5507 14.6781 69.7637C10.5 77.9636 10.5 88.6979 10.5 110.167V125.5Z" fill="#D8F7F5"/>
<path d="M87.1667 10.5V48.8333M87.1667 48.8333H278.833M87.1667 48.8333H71.8333M278.833 10.5V48.8333M278.833 48.8333H294.167M355.5 110.167V294.167C355.5 315.635 355.5 326.371 351.322 334.57C347.647 341.782 341.782 347.647 334.57 351.322C326.371 355.5 315.635 355.5 294.167 355.5H71.8333C50.3646 355.5 39.6303 355.5 31.4304 351.322C24.2174 347.647 18.3532 341.782 14.6781 334.57C10.5 326.371 10.5 315.635 10.5 294.167V110.167M355.5 110.167C355.5 88.6979 355.5 77.9636 351.322 69.7637C347.647 62.5507 341.782 56.6865 334.57 53.0115C326.371 48.8333 315.635 48.8333 294.167 48.8333M355.5 110.167V125.5H10.5V110.167M294.167 48.8333H71.8333M71.8333 48.8333C50.3647 48.8333 39.6303 48.8333 31.4304 53.0115C24.2174 56.6865 18.3532 62.5507 14.6781 69.7637C10.5 77.9636 10.5 88.6979 10.5 110.167" stroke="#00A8A8" stroke-width="21" stroke-linecap="round" stroke-linejoin="round"/>
<path d="M69.1591 275.5V264.864L94.0114 241.852C96.125 239.807 97.8977 237.966 99.3295 236.33C100.784 234.693 101.886 233.091 102.636 231.523C103.386 229.932 103.761 228.216 103.761 226.375C103.761 224.33 103.295 222.568 102.364 221.091C101.432 219.591 100.159 218.443 98.5455 217.648C96.9318 216.83 95.1023 216.42 93.0568 216.42C90.9205 216.42 89.0568 216.852 87.4659 217.716C85.875 218.58 84.6477 219.818 83.7841 221.432C82.9205 223.045 82.4886 224.966 82.4886 227.193H68.4773C68.4773 222.625 69.5114 218.659 71.5795 215.295C73.6477 211.932 76.5455 209.33 80.2727 207.489C84 205.648 88.2955 204.727 93.1591 204.727C98.1591 204.727 102.511 205.614 106.216 207.386C109.943 209.136 112.841 211.568 114.909 214.682C116.977 217.795 118.011 221.364 118.011 225.386C118.011 228.023 117.489 230.625 116.443 233.193C115.42 235.761 113.591 238.614 110.955 241.75C108.318 244.864 104.602 248.602 99.8068 252.966L89.6136 262.955V263.432H118.932V275.5H69.1591ZM157.003 277.034C151.139 277.011 146.094 275.568 141.866 272.705C137.662 269.841 134.423 265.693 132.151 260.261C129.901 254.83 128.787 248.295 128.81 240.659C128.81 233.045 129.935 226.557 132.185 221.193C134.457 215.83 137.696 211.75 141.901 208.955C146.128 206.136 151.162 204.727 157.003 204.727C162.844 204.727 167.866 206.136 172.071 208.955C176.298 211.773 179.548 215.864 181.821 221.227C184.094 226.568 185.219 233.045 185.196 240.659C185.196 248.318 184.06 254.864 181.787 260.295C179.537 265.727 176.31 269.875 172.105 272.739C167.901 275.602 162.866 277.034 157.003 277.034ZM157.003 264.795C161.003 264.795 164.196 262.784 166.582 258.761C168.969 254.739 170.151 248.705 170.128 240.659C170.128 235.364 169.582 230.955 168.491 227.432C167.423 223.909 165.901 221.261 163.923 219.489C161.969 217.716 159.662 216.83 157.003 216.83C153.026 216.83 149.844 218.818 147.457 222.795C145.071 226.773 143.866 232.727 143.844 240.659C143.844 246.023 144.378 250.5 145.446 254.091C146.537 257.659 148.071 260.341 150.048 262.136C152.026 263.909 154.344 264.795 157.003 264.795ZM223.097 277.034C217.233 277.011 212.188 275.568 207.96 272.705C203.756 269.841 200.517 265.693 198.244 260.261C195.994 254.83 194.881 248.295 194.903 240.659C194.903 233.045 196.028 226.557 198.278 221.193C200.551 215.83 203.79 211.75 207.994 208.955C212.222 206.136 217.256 204.727 223.097 204.727C228.938 204.727 233.96 206.136 238.165 208.955C242.392 211.773 245.642 215.864 247.915 221.227C250.188 226.568 251.313 233.045 251.29 240.659C251.29 248.318 250.153 254.864 247.881 260.295C245.631 265.727 242.403 269.875 238.199 272.739C233.994 275.602 228.96 277.034 223.097 277.034ZM223.097 264.795C227.097 264.795 230.29 262.784 232.676 258.761C235.063 254.739 236.244 248.705 236.222 240.659C236.222 235.364 235.676 230.955 234.585 227.432C233.517 223.909 231.994 221.261 230.017 219.489C228.062 217.716 225.756 216.83 223.097 216.83C219.119 216.83 215.938 218.818 213.551 222.795C211.165 226.773 209.96 232.727 209.938 240.659C209.938 246.023 210.472 250.5 211.54 254.091C212.631 257.659 214.165 260.341 216.142 262.136C218.119 263.909 220.438 264.795 223.097 264.795ZM292.19 205.682V275.5H277.429V219.693H277.02L261.031 229.716V216.625L278.315 205.682H292.19Z" fill="#00A8A8"/>
<path fill-rule="evenodd" clip-rule="evenodd" d="M511.37 425.458L491.964 400.702L497.621 391.759C500.819 386.702 503.577 381.487 505.79 375.982C508.001 370.481 509.615 364.822 510.809 358.95L512.919 348.58L544.048 344.154L544.057 344.153C544.469 344.095 544.882 343.872 545.187 343.47C545.446 343.125 545.568 342.67 545.503 342.214L545.503 342.212L539.539 300.29L539.54 300.287C539.406 299.351 538.537 298.69 537.588 298.824L537.584 298.823L506.537 303.25L501.61 293.903C496.12 283.486 488.73 274.027 479.71 266.028L471.803 259.017L483.528 229.85C483.886 228.958 483.454 227.965 482.58 227.614L443.285 211.817C442.401 211.462 441.389 211.901 441.04 212.77L429.315 241.937L418.755 241.525C406.721 241.055 394.869 242.775 383.682 246.497L373.664 249.831L354.288 225.14L354.287 225.139C353.698 224.388 352.626 224.259 351.876 224.847L318.559 250.966C317.808 251.556 317.68 252.635 318.264 253.381L337.614 278.088L332.032 287.008C328.819 292.143 326.052 297.354 323.846 302.841C321.639 308.332 320.018 314.038 318.783 319.966L316.637 330.267L285.573 334.705C284.634 334.84 283.98 335.707 284.114 336.652L290.058 378.502C290.059 378.507 290.059 378.511 290.06 378.516C290.135 379.009 290.384 379.416 290.743 379.691C291.137 379.98 291.591 380.075 291.977 380.018L292.004 380.014L323.162 375.592L328.079 384.956C333.538 395.354 340.905 404.796 349.907 412.766L357.826 419.777L346.099 448.951C345.747 449.825 346.181 450.845 347.057 451.197L386.353 466.994C387.221 467.343 388.225 466.929 388.586 466.03L400.315 436.854L410.888 437.278C422.918 437.761 434.785 436.049 445.916 432.325L455.951 428.968L475.344 453.708L475.347 453.711C475.922 454.445 477.007 454.585 477.756 453.998L511.06 427.889C511.835 427.28 511.943 426.19 511.37 425.458ZM520.321 439.688L487.006 465.806C479.743 471.496 469.228 470.224 463.539 462.961L450.674 446.551C437.814 450.853 424.13 452.821 410.286 452.266L402.504 471.625C399.059 480.194 389.329 484.357 380.758 480.911L341.462 465.115C332.907 461.675 328.737 451.923 332.181 443.356L339.964 423.996C329.599 414.82 321.102 403.936 314.798 391.929L294.139 394.862C289.752 395.501 285.289 394.345 281.741 391.691C278.186 389.016 275.855 385.058 275.215 380.666L269.263 338.762C267.964 329.618 274.318 321.16 283.451 319.856L304.099 316.906C305.475 310.3 307.327 303.718 309.928 297.246C312.53 290.774 315.738 284.771 319.316 279.052L306.456 262.631C300.766 255.368 302.034 244.865 309.301 239.164L342.617 213.046C349.885 207.344 360.386 208.612 366.088 215.88L378.946 232.264C391.836 227.976 405.49 225.995 419.34 226.536L427.123 207.175C430.567 198.606 440.324 194.46 448.879 197.9L488.175 213.696C496.746 217.142 500.89 226.877 497.445 235.444L489.662 254.806C500.033 264.001 508.547 274.893 514.88 286.909L535.474 283.973C544.621 282.673 553.091 289.031 554.39 298.178L560.353 340.099C560.977 344.485 559.837 348.95 557.171 352.493C554.5 356.035 550.548 358.387 546.15 359.006L525.508 361.941C524.162 368.557 522.309 375.106 519.707 381.577C517.106 388.048 513.906 394.072 510.298 399.777L523.175 416.204C528.876 423.477 527.587 433.985 520.321 439.688ZM382.704 419.321C338.63 401.604 317.22 351.359 334.932 307.298C352.644 263.238 402.875 241.792 446.948 259.509C491.027 277.229 512.445 327.475 494.732 371.537C477.019 415.599 426.783 437.041 382.704 419.321ZM348.85 312.893C334.226 349.271 351.915 390.778 388.298 405.404C424.69 420.033 466.191 402.32 480.814 365.942C495.438 329.565 477.744 288.056 441.353 273.427C404.97 258.801 363.474 276.516 348.85 312.893Z" fill="#00A8A8"/>
<path fill-rule="evenodd" clip-rule="evenodd" d="M511.37 425.458L491.964 400.702L497.621 391.759C500.819 386.702 503.577 381.487 505.79 375.982C508.001 370.481 509.615 364.822 510.809 358.95L512.919 348.58L544.048 344.154L544.057 344.153C544.469 344.095 544.882 343.872 545.187 343.47C545.446 343.125 545.568 342.67 545.503 342.214L545.503 342.212L539.539 300.29L539.54 300.287C539.406 299.351 538.537 298.69 537.588 298.824L537.584 298.823L506.537 303.25L501.61 293.903C496.12 283.486 488.73 274.027 479.71 266.028L471.803 259.017L483.528 229.85C483.886 228.958 483.454 227.965 482.58 227.614L443.285 211.817C442.401 211.462 441.389 211.901 441.04 212.77L429.315 241.937L418.755 241.525C406.721 241.055 394.869 242.775 383.682 246.497L373.664 249.831L354.288 225.14L354.287 225.139C353.698 224.388 352.626 224.259 351.876 224.847L318.559 250.966C317.808 251.556 317.68 252.635 318.264 253.381L337.614 278.088L332.032 287.008C328.819 292.143 326.052 297.354 323.846 302.841C321.639 308.332 320.018 314.038 318.783 319.966L316.637 330.267L285.573 334.705C284.634 334.84 283.98 335.707 284.114 336.652L290.058 378.502L290.06 378.516C290.135 379.009 290.384 379.416 290.743 379.691C291.137 379.98 291.591 380.075 291.977 380.018L292.004 380.014L323.162 375.592L328.079 384.956C333.538 395.354 340.905 404.796 349.907 412.766L357.826 419.777L346.099 448.951C345.747 449.825 346.181 450.845 347.057 451.197L386.353 466.994C387.221 467.343 388.225 466.929 388.586 466.03L400.315 436.854L410.888 437.278C422.918 437.761 434.785 436.049 445.916 432.325L455.951 428.968L475.344 453.708L475.347 453.711C475.922 454.445 477.007 454.585 477.756 453.998L511.06 427.889C511.835 427.28 511.943 426.19 511.37 425.458ZM334.932 307.298C317.22 351.359 338.63 401.604 382.704 419.321C426.783 437.041 477.019 415.599 494.732 371.537C512.445 327.475 491.027 277.229 446.948 259.509C402.875 241.792 352.644 263.238 334.932 307.298Z" fill="#D8F7F5"/>
<path d="M428.212 305.924C446.955 313.459 456.029 334.599 448.654 352.944L448.299 353.797C440.62 371.562 419.808 380.146 401.357 372.728C382.623 365.198 373.549 344.058 380.922 325.716C388.297 307.37 409.479 298.394 428.212 305.924Z" fill="#D8F7F5" stroke="#00A8A8" stroke-width="14"/>
</svg>
