<svg width="512" height="512" viewBox="0 0 512 512" fill="none" xmlns="http://www.w3.org/2000/svg">
<g clip-path="url(#clip0_159_29)">
<path d="M192 32.08H216V96.08H192V32.08Z" fill="#D8F7F5"/>
<path d="M120 32.08H144V96.08H120V32.08Z" fill="#D8F7F5"/>
<path d="M432 463.92C458.48 463.92 480 442.4 480 415.92C480 389.44 458.48 367.92 432 367.92C405.52 367.92 384 389.44 384 415.92C384 442.4 405.52 463.92 432 463.92ZM432 487.92C392.24 487.92 360 455.68 360 415.92C360 376.16 392.24 343.92 432 343.92C471.76 343.92 504 376.16 504 415.92C504 455.68 471.76 487.92 432 487.92Z" fill="#D8F7F5"/>
<path d="M432 160.08C458.48 160.08 480 181.6 480 208.08C480 234.568 458.48 256.08 432 256.08C405.52 256.08 384 234.568 384 208.08C384 181.6 405.52 160.08 432 160.08Z" fill="#D8F7F5"/>
<path d="M96 32.08V96.08H72V88.08V40.08V32.08H96Z" fill="#D8F7F5"/>
<path d="M48 88.08V96.08H8V32.08H48V40.08V88.08Z" fill="#D8F7F5"/>
<path d="M96 32.08H120V96.08H96V32.08Z" fill="#D8F7F5"/>
<path d="M216 32.08H240V96.08H216V32.08Z" fill="#D8F7F5"/>
<path d="M48 40.08H72V88.08H48V40.08Z" fill="#D8F7F5"/>
<path d="M144 32.08H168V96.08H144V32.08Z" fill="#D8F7F5"/>
<path d="M168 32.08H192V96.08H168V32.08Z" fill="#D8F7F5"/>
<path d="M312 32.08H336V96.08H312V32.08Z" fill="#D8F7F5"/>
<path d="M240 32.08H264V96.08H240V32.08Z" fill="#D8F7F5"/>
<path d="M432 32.08V96.08H431.92H383.92V88.08V40.08V32.08H431.92H432Z" fill="#D8F7F5"/>
<path d="M496 32V96H495.907H440V88V40V32H495.907H496Z" fill="#D8F7F5"/>
<path d="M264 32.08H288V96.08H264V32.08Z" fill="#D8F7F5"/>
<path d="M359.92 40.08H383.92V88.08H359.92V40.08Z" fill="#D8F7F5"/>
<path d="M359.92 88.08V96.08H336V32.08H359.92V40.08V88.08Z" fill="#D8F7F5"/>
<path d="M288 32.08H312V96.08H288V32.08Z" fill="#D8F7F5"/>
<path d="M296 151.52V152.08H216V128.08H296V151.52Z" fill="#D8F7F5"/>
<path d="M144 152.08H168V240H144V152.08Z" fill="#D8F7F5"/>
<path d="M168 152.08H192V240H168V152.08Z" fill="#D8F7F5"/>
<path d="M320 152.08V264.08H192V240V152.08H216H296H320Z" fill="#D8F7F5"/>
<path d="M320 264.08V288H296H216H192V264.08H320Z" fill="#D8F7F5"/>
<path d="M296 288V312.08H216V288.56V288H296Z" fill="#D8F7F5"/>
<path d="M328 368.08V415.92C328 455.68 295.84 487.92 256 487.92C216.24 487.92 184 455.68 184 415.92V368.08H328Z" fill="#D8F7F5"/>
<path d="M72 263.92H120V415.92H72V263.92Z" fill="#D8F7F5"/>
<path d="M359.936 104.096H72.0239C67.5999 104.096 64.0239 100.52 64.0239 96.096V32.096C64.0239 27.672 67.5999 24.096 72.0239 24.096H359.936C364.36 24.096 367.936 27.672 367.936 32.096V96.096C367.936 100.512 364.36 104.096 359.936 104.096ZM80.0239 88.096H351.936V40.096H80.0239V88.096Z" fill="#00A8A8"/>
<path d="M383.936 48.096H359.936C355.512 48.096 351.936 44.52 351.936 40.096C351.936 35.672 355.512 32.096 359.936 32.096H383.936C388.36 32.096 391.936 35.672 391.936 40.096C391.936 44.52 388.36 48.096 383.936 48.096Z" fill="#00A8A8"/>
<path d="M383.936 96.096H359.936C355.512 96.096 351.936 92.52 351.936 88.096C351.936 83.672 355.512 80.096 359.936 80.096H383.936C388.36 80.096 391.936 83.672 391.936 88.096C391.936 92.52 388.36 96.096 383.936 96.096Z" fill="#00A8A8"/>
<path d="M431.928 104.096H383.936C379.512 104.096 375.936 100.52 375.936 96.096V32.096C375.936 27.672 379.512 24.096 383.936 24.096H431.928C436.352 24.096 439.928 27.672 439.928 32.096C439.928 36.52 436.352 40.096 431.928 40.096H391.936V88.096H431.928C436.352 88.096 439.928 91.672 439.928 96.096C439.928 100.52 436.352 104.096 431.928 104.096Z" fill="#00A8A8"/>
<path d="M71.9922 96.08H47.9922C43.5682 96.08 39.9922 92.504 39.9922 88.08C39.9922 83.656 43.5682 80.08 47.9922 80.08H71.9922C76.4162 80.08 79.9922 83.656 79.9922 88.08C79.9922 92.504 76.4162 96.08 71.9922 96.08Z" fill="#00A8A8"/>
<path d="M71.9922 48.08H47.9922C43.5682 48.08 39.9922 44.504 39.9922 40.08C39.9922 35.656 43.5682 32.08 47.9922 32.08H71.9922C76.4162 32.08 79.9922 35.656 79.9922 40.08C79.9922 44.504 76.4162 48.08 71.9922 48.08Z" fill="#00A8A8"/>
<path d="M47.9918 104.08H8.00782C3.58382 104.08 0.0078125 100.504 0.0078125 96.08C0.0078125 91.656 3.58382 88.08 8.00782 88.08H39.9918V40.08H8.00782C3.58382 40.08 0.0078125 36.504 0.0078125 32.08C0.0078125 27.656 3.58382 24.08 8.00782 24.08H47.9918C52.4158 24.08 55.9918 27.656 55.9918 32.08V96.08C55.9918 100.504 52.4158 104.08 47.9918 104.08Z" fill="#00A8A8"/>
<path d="M504 112.08H431.976C427.552 112.08 423.976 108.504 423.976 104.08V24.08C423.976 19.656 427.552 16.08 431.976 16.08H504C508.424 16.08 512 19.656 512 24.08V104.08C512 108.504 508.424 112.08 504 112.08ZM439.976 96.08H496V32.08H439.976V96.08Z" fill="#00A8A8"/>
<path d="M8.00782 104.08C3.58382 104.08 0.0078125 100.504 0.0078125 96.08V32.08C0.0078125 27.656 3.58382 24.08 8.00782 24.08C12.4318 24.08 16.0078 27.656 16.0078 32.08V96.08C16.0078 100.504 12.4318 104.08 8.00782 104.08Z" fill="#00A8A8"/>
<path d="M96 104.064C91.576 104.064 88 100.488 88 96.064V32.08C88 27.656 91.576 24.08 96 24.08C100.424 24.08 104 27.656 104 32.08V96.064C104 100.488 100.424 104.064 96 104.064Z" fill="#00A8A8"/>
<path d="M120 104.064C115.576 104.064 112 100.488 112 96.064V32.08C112 27.656 115.576 24.08 120 24.08C124.424 24.08 128 27.656 128 32.08V96.064C128 100.488 124.424 104.064 120 104.064Z" fill="#00A8A8"/>
<path d="M144 104.064C139.576 104.064 136 100.488 136 96.064V32.08C136 27.656 139.576 24.08 144 24.08C148.424 24.08 152 27.656 152 32.08V96.064C152 100.488 148.424 104.064 144 104.064Z" fill="#00A8A8"/>
<path d="M168 104.064C163.576 104.064 160 100.488 160 96.064V32.08C160 27.656 163.576 24.08 168 24.08C172.424 24.08 176 27.656 176 32.08V96.064C176 100.488 172.424 104.064 168 104.064Z" fill="#00A8A8"/>
<path d="M192 104.064C187.576 104.064 184 100.488 184 96.064V32.08C184 27.656 187.576 24.08 192 24.08C196.424 24.08 200 27.656 200 32.08V96.064C200 100.488 196.424 104.064 192 104.064Z" fill="#00A8A8"/>
<path d="M216 104.064C211.576 104.064 208 100.488 208 96.064V32.08C208 27.656 211.576 24.08 216 24.08C220.424 24.08 224 27.656 224 32.08V96.064C224 100.488 220.424 104.064 216 104.064Z" fill="#00A8A8"/>
<path d="M240 104.064C235.576 104.064 232 100.488 232 96.064V32.08C232 27.656 235.576 24.08 240 24.08C244.424 24.08 248 27.656 248 32.08V96.064C248 100.488 244.424 104.064 240 104.064Z" fill="#00A8A8"/>
<path d="M264 104.064C259.576 104.064 256 100.488 256 96.064V32.08C256 27.656 259.576 24.08 264 24.08C268.424 24.08 272 27.656 272 32.08V96.064C272 100.488 268.424 104.064 264 104.064Z" fill="#00A8A8"/>
<path d="M288 104.064C283.576 104.064 280 100.488 280 96.064V32.08C280 27.656 283.576 24.08 288 24.08C292.424 24.08 296 27.656 296 32.08V96.064C296 100.488 292.424 104.064 288 104.064Z" fill="#00A8A8"/>
<path d="M312 104.064C307.576 104.064 304 100.488 304 96.064V32.08C304 27.656 307.576 24.08 312 24.08C316.424 24.08 320 27.656 320 32.08V96.064C320 100.488 316.424 104.064 312 104.064Z" fill="#00A8A8"/>
<path d="M336 104.064C331.576 104.064 328 100.488 328 96.064V32.08C328 27.656 331.576 24.08 336 24.08C340.424 24.08 344 27.656 344 32.08V96.064C344 100.488 340.424 104.064 336 104.064Z" fill="#00A8A8"/>
<path d="M432 288.08C387.888 288.08 352 252.192 352 208.08C352 163.968 387.888 128.08 432 128.08C476.112 128.08 512 163.968 512 208.08C512 252.192 476.112 288.08 432 288.08ZM432 144.08C396.712 144.08 368 172.792 368 208.08C368 243.368 396.712 272.08 432 272.08C467.288 272.08 496 243.368 496 208.08C496 172.792 467.288 144.08 432 144.08Z" fill="#00A8A8"/>
<path d="M432 264.08C401.128 264.08 376 238.952 376 208.08C376 177.208 401.128 152.08 432 152.08C462.872 152.08 488 177.208 488 208.08C488 238.952 462.872 264.08 432 264.08ZM432 168.08C409.944 168.08 392 186.024 392 208.08C392 230.136 409.944 248.08 432 248.08C454.056 248.08 472 230.136 472 208.08C472 186.024 454.056 168.08 432 168.08Z" fill="#00A8A8"/>
<path d="M432.24 216.08C427.816 216.08 424.2 212.504 424.2 208.08C424.2 203.656 427.736 200.08 432.152 200.08H432.24C436.656 200.08 440.24 203.656 440.24 208.08C440.24 212.504 436.656 216.08 432.24 216.08Z" fill="#00A8A8"/>
<path d="M432.24 192.08C427.816 192.08 424.2 188.504 424.2 184.08C424.2 179.656 427.736 176.08 432.152 176.08H432.24C436.656 176.08 440.24 179.656 440.24 184.08C440.24 188.504 436.656 192.08 432.24 192.08Z" fill="#00A8A8"/>
<path d="M432.24 240.08C427.816 240.08 424.2 236.504 424.2 232.08C424.2 227.656 427.736 224.08 432.152 224.08H432.24C436.656 224.08 440.24 227.656 440.24 232.08C440.24 236.504 436.656 240.08 432.24 240.08Z" fill="#00A8A8"/>
<path d="M411.464 204.08C407.04 204.08 403.424 200.504 403.424 196.08C403.424 191.656 406.96 188.08 411.376 188.08H411.464C415.88 188.08 419.464 191.656 419.464 196.08C419.464 200.504 415.872 204.08 411.464 204.08Z" fill="#00A8A8"/>
<path d="M453.032 228.08C448.608 228.08 444.992 224.504 444.992 220.08C444.992 215.656 448.528 212.08 452.944 212.08H453.032C457.448 212.08 461.032 215.656 461.032 220.08C461.032 224.504 457.448 228.08 453.032 228.08Z" fill="#00A8A8"/>
<path d="M411.464 228.08C407.04 228.08 403.424 224.504 403.424 220.08C403.424 215.656 406.96 212.08 411.376 212.08H411.464C415.88 212.08 419.464 215.656 419.464 220.08C419.464 224.504 415.872 228.08 411.464 228.08Z" fill="#00A8A8"/>
<path d="M453.032 204.064C448.608 204.064 444.992 200.488 444.992 196.064C444.992 191.64 448.528 188.064 452.944 188.064H453.032C457.448 188.064 461.032 191.64 461.032 196.064C461.032 200.488 457.448 204.064 453.032 204.064Z" fill="#00A8A8"/>
<path d="M432 495.92C387.888 495.92 352 460.032 352 415.92C352 371.808 387.888 335.92 432 335.92C476.112 335.92 512 371.808 512 415.92C512 460.032 476.112 495.92 432 495.92ZM432 351.92C396.712 351.92 368 380.632 368 415.92C368 451.208 396.712 479.92 432 479.92C467.288 479.92 496 451.208 496 415.92C496 380.632 467.288 351.92 432 351.92Z" fill="#00A8A8"/>
<path d="M432 471.92C401.128 471.92 376 446.792 376 415.92C376 385.048 401.128 359.92 432 359.92C462.872 359.92 488 385.048 488 415.92C488 446.792 462.872 471.92 432 471.92ZM432 375.92C409.944 375.92 392 393.864 392 415.92C392 437.976 409.944 455.92 432 455.92C454.056 455.92 472 437.976 472 415.92C472 393.864 454.056 375.92 432 375.92Z" fill="#00A8A8"/>
<path d="M168.024 495.92H24.0078C19.5838 495.92 16.0078 492.344 16.0078 487.92C16.0078 483.496 19.5838 479.92 24.0078 479.92H168.024C172.448 479.92 176.024 483.496 176.024 487.92C176.024 492.344 172.448 495.92 168.024 495.92Z" fill="#00A8A8"/>
<path d="M152.016 455.872C147.592 455.872 144.016 452.296 144.016 447.872C144.016 434.648 133.248 423.888 120.024 423.888C115.6 423.888 112.024 420.312 112.024 415.888C112.024 411.464 115.6 407.888 120.024 407.888C142.08 407.888 160.016 425.824 160.016 447.872C160.016 452.296 156.44 455.872 152.016 455.872Z" fill="#00A8A8"/>
<path d="M40.04 455.872C35.616 455.872 32.04 452.296 32.04 447.872C32.04 425.824 49.976 407.888 72.032 407.888C76.456 407.888 80.032 411.464 80.032 415.888C80.032 420.312 76.456 423.888 72.032 423.888C58.808 423.888 48.04 434.648 48.04 447.872C48.04 452.296 44.464 455.872 40.04 455.872Z" fill="#00A8A8"/>
<path d="M152.016 495.92C147.592 495.92 144.016 492.344 144.016 487.92V447.872C144.016 443.448 147.592 439.872 152.016 439.872C156.44 439.872 160.016 443.448 160.016 447.872V487.92C160.016 492.344 156.44 495.92 152.016 495.92Z" fill="#00A8A8"/>
<path d="M40.04 495.92C35.616 495.92 32.04 492.344 32.04 487.92V447.872C32.04 443.448 35.616 439.872 40.04 439.872C44.464 439.872 48.04 443.448 48.04 447.872V487.92C48.04 492.344 44.464 495.92 40.04 495.92Z" fill="#00A8A8"/>
<path d="M120.024 423.888C115.6 423.888 112.024 420.312 112.024 415.888V263.952C112.024 259.528 115.6 255.952 120.024 255.952C124.448 255.952 128.024 259.528 128.024 263.952V415.888C128.024 420.312 124.448 423.888 120.024 423.888Z" fill="#00A8A8"/>
<path d="M72.0322 423.888C67.6082 423.888 64.0322 420.312 64.0322 415.888V263.952C64.0322 259.528 67.6082 255.952 72.0322 255.952C76.4562 255.952 80.0322 259.528 80.0322 263.952V415.888C80.0322 420.312 76.4562 423.888 72.0322 423.888Z" fill="#00A8A8"/>
<path d="M120.024 271.952H72.0322C67.6082 271.952 64.0322 268.376 64.0322 263.952C64.0322 259.528 67.6082 255.952 72.0322 255.952H120.024C124.448 255.952 128.024 259.528 128.024 263.952C128.024 268.376 124.448 271.952 120.024 271.952Z" fill="#00A8A8"/>
<path d="M120.024 423.888H72.0322C67.6082 423.888 64.0322 420.312 64.0322 415.888C64.0322 411.464 67.6082 407.888 72.0322 407.888H120.024C124.448 407.888 128.024 411.464 128.024 415.888C128.024 420.312 124.448 423.888 120.024 423.888Z" fill="#00A8A8"/>
<path d="M256.024 495.92C211.912 495.92 176.024 460.032 176.024 415.92C176.024 411.496 179.6 407.92 184.024 407.92C188.448 407.92 192.024 411.496 192.024 415.92C192.024 451.208 220.736 479.92 256.024 479.92C291.312 479.92 320.024 451.208 320.024 415.92C320.024 411.496 323.6 407.92 328.024 407.92C332.448 407.92 336.024 411.496 336.024 415.92C336.024 460.032 300.136 495.92 256.024 495.92Z" fill="#00A8A8"/>
<path d="M184.016 423.92C179.592 423.92 176.016 420.344 176.016 415.92V367.888C176.016 363.464 179.592 359.888 184.016 359.888C188.44 359.888 192.016 363.464 192.016 367.888V415.92C192.016 420.344 188.44 423.92 184.016 423.92Z" fill="#00A8A8"/>
<path d="M328.016 423.92C323.592 423.92 320.016 420.344 320.016 415.92V367.888C320.016 363.464 323.592 359.888 328.016 359.888C332.44 359.888 336.016 363.464 336.016 367.888V415.92C336.016 420.344 332.44 423.92 328.016 423.92Z" fill="#00A8A8"/>
<path d="M336.016 376.096H176C171.576 376.096 168 372.52 168 368.096V344.096C168 339.672 171.576 336.096 176 336.096H336.016C340.44 336.096 344.016 339.672 344.016 344.096V368.096C344.016 372.512 340.44 376.096 336.016 376.096ZM184 360.096H328.016V352.096H184V360.096Z" fill="#00A8A8"/>
<path d="M192.024 296.032C187.6 296.032 184.024 292.456 184.024 288.032V151.952C184.024 147.528 187.6 143.952 192.024 143.952C196.448 143.952 200.024 147.528 200.024 151.952V288.032C200.024 292.456 196.448 296.032 192.024 296.032Z" fill="#00A8A8"/>
<path d="M319.992 296.032C315.568 296.032 311.992 292.456 311.992 288.032V151.952C311.992 147.528 315.568 143.952 319.992 143.952C324.416 143.952 327.992 147.528 327.992 151.952V288.032C327.992 292.456 324.416 296.032 319.992 296.032Z" fill="#00A8A8"/>
<path d="M319.992 296.032H192.024C187.6 296.032 184.024 292.456 184.024 288.032C184.024 283.608 187.6 280.032 192.024 280.032H319.992C324.416 280.032 327.992 283.608 327.992 288.032C327.992 292.456 324.416 296.032 319.992 296.032Z" fill="#00A8A8"/>
<path d="M328 272.064H184.016C179.592 272.064 176.016 268.488 176.016 264.064C176.016 259.64 179.592 256.064 184.016 256.064H328C332.424 256.064 336 259.64 336 264.064C336 268.488 332.424 272.064 328 272.064Z" fill="#00A8A8"/>
<path d="M216.008 320.064C211.584 320.064 208.008 316.488 208.008 312.064V288.592C208.008 284.168 211.584 280.592 216.008 280.592C220.432 280.592 224.008 284.168 224.008 288.592V312.064C224.008 316.488 220.432 320.064 216.008 320.064Z" fill="#00A8A8"/>
<path d="M295.992 320.064H216.008C211.584 320.064 208.008 316.488 208.008 312.064C208.008 307.64 211.584 304.064 216.008 304.064H295.992C300.416 304.064 303.992 307.64 303.992 312.064C303.992 316.488 300.416 320.064 295.992 320.064Z" fill="#00A8A8"/>
<path d="M295.992 320.064C291.568 320.064 287.992 316.488 287.992 312.064V288.032C287.992 283.608 291.568 280.032 295.992 280.032C300.416 280.032 303.992 283.608 303.992 288.032V312.064C303.992 316.488 300.416 320.064 295.992 320.064Z" fill="#00A8A8"/>
<path d="M295.992 159.528C291.568 159.528 287.992 155.952 287.992 151.528V128.08C287.992 123.656 291.568 120.08 295.992 120.08C300.416 120.08 303.992 123.656 303.992 128.08V151.536C303.992 155.952 300.416 159.528 295.992 159.528Z" fill="#00A8A8"/>
<path d="M295.992 136.08H216.008C211.584 136.08 208.008 132.504 208.008 128.08C208.008 123.656 211.584 120.08 216.008 120.08H295.992C300.416 120.08 303.992 123.656 303.992 128.08C303.992 132.504 300.416 136.08 295.992 136.08Z" fill="#00A8A8"/>
<path d="M216.008 160.112C211.584 160.112 208.008 156.536 208.008 152.112V128.08C208.008 123.656 211.584 120.08 216.008 120.08C220.432 120.08 224.008 123.656 224.008 128.08V152.112C224.008 156.528 220.432 160.112 216.008 160.112Z" fill="#00A8A8"/>
<path d="M192.024 248.032H144C139.576 248.032 136 244.456 136 240.032C136 235.608 139.576 232.032 144 232.032H192.024C196.448 232.032 200.024 235.608 200.024 240.032C200.024 244.456 196.448 248.032 192.024 248.032Z" fill="#00A8A8"/>
<path d="M320.152 160.064H144C139.576 160.064 136 156.488 136 152.064C136 147.64 139.576 144.064 144 144.064H320.152C324.576 144.064 328.152 147.64 328.152 152.064C328.152 156.488 324.568 160.064 320.152 160.064Z" fill="#00A8A8"/>
<path d="M144 248.032C139.576 248.032 136 244.456 136 240.032V152.064C136 147.64 139.576 144.064 144 144.064C148.424 144.064 152 147.64 152 152.064V240.032C152 244.456 148.424 248.032 144 248.032Z" fill="#00A8A8"/>
<path d="M168.016 256.048C163.592 256.048 160.016 252.472 160.016 248.048V144.048C160.016 139.624 163.592 136.048 168.016 136.048C172.44 136.048 176.016 139.624 176.016 144.048V248.048C176.016 252.472 172.44 256.048 168.016 256.048Z" fill="#00A8A8"/>
<path d="M503.864 320.08H360C355.576 320.08 352 316.504 352 312.08C352 307.656 355.576 304.08 360 304.08H503.864C508.288 304.08 511.864 307.656 511.864 312.08C511.864 316.504 508.288 320.08 503.864 320.08Z" fill="#00A8A8"/>
<path d="M503.864 328.08C499.44 328.08 495.864 324.504 495.864 320.08V304.08C495.864 299.656 499.44 296.08 503.864 296.08C508.288 296.08 511.864 299.656 511.864 304.08V320.08C511.864 324.504 508.288 328.08 503.864 328.08Z" fill="#00A8A8"/>
<path d="M60 232.096C31.328 232.096 8 208.768 8 180.096C8 151.424 31.328 128.096 60 128.096C88.672 128.096 112 151.424 112 180.096C112 208.768 88.672 232.096 60 232.096ZM60 144.096C40.152 144.096 24 160.248 24 180.096C24 199.944 40.152 216.096 60 216.096C79.848 216.096 96 199.944 96 180.096C96 160.248 79.848 144.096 60 144.096Z" fill="#00A8A8"/>
<path d="M60 208.096C44.56 208.096 32 195.536 32 180.096C32 164.656 44.56 152.096 60 152.096C75.44 152.096 88 164.656 88 180.096C88 195.536 75.44 208.096 60 208.096ZM60 168.096C53.384 168.096 48 173.48 48 180.096C48 186.712 53.384 192.096 60 192.096C66.616 192.096 72 186.712 72 180.096C72 173.48 66.616 168.096 60 168.096Z" fill="#00A8A8"/>
<path d="M112 188.096H104C99.576 188.096 96 184.52 96 180.096C96 175.672 99.576 172.096 104 172.096H112C116.424 172.096 120 175.672 120 180.096C120 184.52 116.424 188.096 112 188.096Z" fill="#00A8A8"/>
<path d="M15.9998 188.096H8.00782C3.58382 188.096 0.0078125 184.52 0.0078125 180.096C0.0078125 175.672 3.58382 172.096 8.00782 172.096H15.9998C20.4238 172.096 23.9998 175.672 23.9998 180.096C23.9998 184.52 20.4238 188.096 15.9998 188.096Z" fill="#00A8A8"/>
<path d="M60 240.096C55.576 240.096 52 236.52 52 232.096V224.096C52 219.672 55.576 216.096 60 216.096C64.424 216.096 68 219.672 68 224.096V232.096C68 236.512 64.424 240.096 60 240.096Z" fill="#00A8A8"/>
<path d="M60 144.096C55.576 144.096 52 140.52 52 136.096V128.112C52 123.688 55.576 120.112 60 120.112C64.424 120.112 68 123.688 68 128.112V136.096C68 140.512 64.424 144.096 60 144.096Z" fill="#00A8A8"/>
<path d="M39.88 288.016C35.456 288.016 31.88 284.44 31.88 280.016C31.88 275.64 28.32 272.08 23.936 272.08C19.56 272.08 16 275.64 16 280.016C16 284.44 12.424 288.016 8 288.016C3.576 288.016 0 284.44 0 280.016C0 266.824 10.744 256.08 23.936 256.08C37.136 256.08 47.88 266.824 47.88 280.016C47.88 284.44 44.304 288.016 39.88 288.016Z" fill="#00A8A8"/>
<path d="M24.016 384.112C10.776 384.112 0 373.328 0 360.08C0 355.656 3.576 352.08 8 352.08C12.424 352.08 16 355.656 16 360.08C16 364.512 19.592 368.112 24.016 368.112C28.44 368.112 32.04 364.512 32.04 360.08C32.04 355.656 35.616 352.08 40.04 352.08C44.464 352.08 48.04 355.656 48.04 360.08C48.04 373.328 37.264 384.112 24.016 384.112Z" fill="#00A8A8"/>
<path d="M39.8799 368.08C35.4559 368.08 31.8799 364.504 31.8799 360.08V280.016C31.8799 275.592 35.4559 272.016 39.8799 272.016C44.3039 272.016 47.8799 275.592 47.8799 280.016V360.08C47.8799 364.504 44.3039 368.08 39.8799 368.08Z" fill="#00A8A8"/>
<path d="M8 368.08C3.576 368.08 0 364.504 0 360.08V280.016C0 275.592 3.576 272.016 8 272.016C12.424 272.016 16 275.592 16 280.016V360.08C16 364.504 12.424 368.08 8 368.08Z" fill="#00A8A8"/>
</g>
<defs>
<clipPath id="clip0_159_29">
<rect width="512" height="512" fill="white"/>
</clipPath>
</defs>
</svg>
