<svg width="30" height="30" viewBox="0 0 30 30" fill="none" xmlns="http://www.w3.org/2000/svg">
<path d="M10.5625 25.5125C11.2529 25.5125 11.8125 24.9528 11.8125 24.2625C11.8125 23.5721 11.2529 23.0125 10.5625 23.0125C9.87214 23.0125 9.3125 23.5721 9.3125 24.2625C9.3125 24.9528 9.87214 25.5125 10.5625 25.5125Z" fill="white"/>
<path d="M20.5625 25.5125C21.2529 25.5125 21.8125 24.9528 21.8125 24.2625C21.8125 23.5721 21.2529 23.0125 20.5625 23.0125C19.8721 23.0125 19.3125 23.5721 19.3125 24.2625C19.3125 24.9528 19.8721 25.5125 20.5625 25.5125Z" fill="white"/>
<path d="M15.925 12.8625V17.8625" stroke="white" stroke-width="1.5" stroke-linecap="round" stroke-linejoin="round"/>
<path d="M18.425 15.3625H13.425" stroke="white" stroke-width="1.5" stroke-linecap="round" stroke-linejoin="round"/>
<path d="M3 8H5.1625C5.62814 8.00046 6.07719 8.17303 6.4233 8.48453C6.76941 8.79603 6.98816 9.22448 7.0375 9.6875L7.95 18.8125C7.99388 19.2777 8.21101 19.7094 8.55832 20.022C8.90564 20.3346 9.35776 20.5052 9.825 20.5H21.45C21.9104 20.4999 22.3547 20.3304 22.6982 20.0238C23.0417 19.7172 23.2603 19.2949 23.3125 18.8375L24.15 11.3375C24.1796 11.0782 24.1548 10.8155 24.0771 10.5664C23.9994 10.3172 23.8705 10.087 23.6987 9.89052C23.5269 9.69402 23.316 9.53556 23.0795 9.42526C22.8429 9.31497 22.5859 9.25527 22.325 9.25H6.9875" stroke="white" stroke-width="1.5" stroke-linecap="round" stroke-linejoin="round"/>
</svg>
