<svg width="40" height="40" viewBox="0 0 40 40" fill="none" xmlns="http://www.w3.org/2000/svg">
<path d="M13.4167 33.3501C14.3371 33.3501 15.0833 32.6039 15.0833 31.6834C15.0833 30.7629 14.3371 30.0167 13.4167 30.0167C12.4962 30.0167 11.75 30.7629 11.75 31.6834C11.75 32.6039 12.4962 33.3501 13.4167 33.3501Z" fill="black"/>
<path d="M26.7499 33.3501C27.6704 33.3501 28.4166 32.6039 28.4166 31.6834C28.4166 30.7629 27.6704 30.0167 26.7499 30.0167C25.8294 30.0167 25.0833 30.7629 25.0833 31.6834C25.0833 32.6039 25.8294 33.3501 26.7499 33.3501Z" fill="black"/>
<path d="M3.8999 10.65H6.78324C7.4041 10.6506 8.00282 10.8807 8.4643 11.2961C8.92578 11.7114 9.21745 12.2827 9.28324 12.9L10.4999 25.0667C10.5584 25.687 10.8479 26.2626 11.311 26.6794C11.7741 27.0961 12.3769 27.3236 12.9999 27.3167H28.4999C29.1138 27.3166 29.7062 27.0906 30.1641 26.6818C30.6221 26.273 30.9137 25.71 30.9832 25.1L32.0999 15.1C32.1394 14.7543 32.1063 14.4041 32.0027 14.0719C31.8991 13.7396 31.7273 13.4327 31.4982 13.1707C31.2692 12.9087 30.9879 12.6974 30.6725 12.5504C30.3571 12.4033 30.0145 12.3237 29.6666 12.3167H9.21657" stroke="black" stroke-width="1.5" stroke-linecap="round" stroke-linejoin="round"/>
</svg>
