<svg width="188" height="63" viewBox="0 0 188 63" fill="none" xmlns="http://www.w3.org/2000/svg">
<path fill-rule="evenodd" clip-rule="evenodd" d="M100.001 29.2092H106.325V51.4926H100.001V42.3766H86.4506C82.8918 42.3766 80.5649 40.9531 80.5649 36.8469C80.5649 34.301 80.5649 31.7551 80.5649 29.2092H86.3958V35.2865C86.3958 37.3944 87.4087 38.1335 89.1607 38.1335C91.8982 38.1335 94.6357 37.9966 97.3732 38.1335C98.7146 38.2156 100.001 37.5586 100.001 35.9709V29.2092Z" fill="white"/>
<path fill-rule="evenodd" clip-rule="evenodd" d="M109.418 29.2092H110.048H115.742H131.756V33.8356H115.742V38.0514H131.756V42.6778H115.742V46.8935H131.756V51.4926H115.742H110.048H109.418V29.2092Z" fill="white"/>
<path fill-rule="evenodd" clip-rule="evenodd" d="M159.624 29.2092H165.975V37.5313L178.075 29.2092H186.726L170.903 40.0498L187.027 51.4926H179.088L165.975 42.5956V51.4926H159.624V29.2092Z" fill="white"/>
<path fill-rule="evenodd" clip-rule="evenodd" d="M134.439 29.2092H135.069H140.763H156.777V33.8356H140.763V38.0514H156.777V42.6778H140.763V46.8935H156.777V51.4926H140.763H135.069H134.439V29.2092Z" fill="white"/>
<path fill-rule="evenodd" clip-rule="evenodd" d="M78.895 29.2092H72.5713L65.3717 41.0626L59.1575 32.4121L54.4216 34.6295C56.9401 38.0788 59.4586 41.528 61.9772 44.9773C62.9079 46.2092 62.3878 47.2768 60.9095 47.3042L57.4329 47.3589V51.4926C59.1301 51.4926 60.8274 51.4926 62.5247 51.4926C65.7275 51.1641 66.7952 49.4942 67.7259 47.8517L78.895 29.2092Z" fill="white"/>
<path fill-rule="evenodd" clip-rule="evenodd" d="M18.9162 62.908C15.4396 48.0159 19.2721 35.9709 28.2237 25.9242C28.3332 24.7471 28.4153 23.57 28.4975 22.3928C29.5925 22.3928 30.4411 22.3928 31.5361 22.3928C32.987 20.6408 34.6842 18.8614 36.1625 17.1094C36.2446 16.4524 36.3268 15.7681 36.4363 15.0837C37.6955 15.0837 38.9821 15.0837 40.2414 15.0837C40.9531 17.9307 41.6649 20.7777 42.404 23.5973C45.9354 23.4605 52.2043 23.7342 55.3798 22.5023C57.0497 21.8727 60.7453 19.7922 58.3637 17.7664C53.9289 13.9887 48.0433 11.5523 40.6246 10.5394C27.8405 9.03378 16.1513 10.2383 5.11914 13.0579C5.03702 13.6328 4.92752 14.2077 4.84539 14.7826C3.31239 13.6328 1.80676 12.483 0.273751 11.3333C0.191626 9.58128 0.0821253 7.82928 0 6.07727C10.4025 1.97101 21.1336 0.328501 32.0562 0C42.0481 0.657002 51.7937 1.99838 60.28 6.98065C66.1382 10.6763 70.6004 15.0563 67.8081 23.1046C65.3991 30.0579 52.2043 34.958 45.4153 34.958C41.8291 34.958 38.243 34.958 34.6569 34.958C31.892 41.3911 29.1271 47.8517 26.3622 54.2848C25.4315 53.5183 24.5007 52.7518 23.57 51.9579C22.0096 55.5988 20.4766 59.2671 18.9162 62.908Z" fill="white"/>
</svg>
